<?xml version="1.0" standalone="no"?>
<!DOCTYPE svg PUBLIC "-//W3C//DTD SVG 20010904//EN"
 "http://www.w3.org/TR/2001/REC-SVG-20010904/DTD/svg10.dtd">
<svg version="1.0" xmlns="http://www.w3.org/2000/svg"
 width="32.000000pt" height="32.000000pt" viewBox="0 0 32.000000 32.000000"
 preserveAspectRatio="xMidYMid meet">
<metadata>
Created by potrace 1.16, written by Peter Selinger 2001-2019
</metadata>
<g transform="translate(0.000000,32.000000) scale(0.100000,-0.100000)"
fill="#000000" stroke="none">
<path d="M160 178 l-24 -42 -17 38 c-17 38 -17 38 -34 19 -16 -19 -54 -116
-54 -138 0 -5 14 21 32 60 l33 69 17 -37 c24 -51 32 -52 46 -8 21 72 36 70 67
-11 15 -40 29 -68 31 -62 5 15 -50 147 -63 151 -5 2 -21 -16 -34 -39z"/>
</g>
</svg>
